<svg width="223" height="64" viewBox="0 0 223 64" fill="none" xmlns="http://www.w3.org/2000/svg">
<path d="M12.8481 31.69C12.8481 35.5418 13.643 39.0268 15.2326 42.1449C16.8528 45.263 19.0691 47.7392 21.8815 49.5734C24.6939 51.377 27.9496 52.2788 31.6486 52.2788C35.3475 52.2788 38.6032 51.377 41.4156 49.5734C44.2586 47.7392 46.475 45.263 48.0646 42.1449C49.6542 39.0268 50.449 35.5418 50.449 31.69C50.449 27.8382 49.6542 24.3685 48.0646 21.281C46.475 18.1629 44.2586 15.6867 41.4156 13.8525C38.6032 12.0183 35.3475 11.1012 31.6486 11.1012C27.9496 11.1012 24.6939 12.0183 21.8815 13.8525C19.0691 15.6867 16.8528 18.1629 15.2326 21.281C13.643 24.3685 12.8481 27.8382 12.8481 31.69ZM0.9259 31.69C0.9259 27.288 1.69015 23.1916 3.21864 19.4009C4.7777 15.5797 6.94816 12.2476 9.73001 9.4046C12.5119 6.5616 15.7676 4.34529 19.4971 2.75566C23.2572 1.16603 27.3077 0.371209 31.6486 0.371209C36.0506 0.371209 40.1164 1.16603 43.8459 2.75566C47.5755 4.34529 50.8159 6.5616 53.5672 9.4046C56.349 12.2476 58.5042 15.5797 60.0327 19.4009C61.5612 23.1916 62.3254 27.288 62.3254 31.69C62.3254 36.1226 61.5765 40.2496 60.0785 44.0708C58.5806 47.8615 56.456 51.1936 53.7047 54.0671C50.9534 56.9101 47.713 59.1264 43.9835 60.7161C40.254 62.3057 36.1423 63.1005 31.6486 63.1005C27.0937 63.1005 22.9362 62.3057 19.1761 60.7161C15.4466 59.1264 12.2062 56.9101 9.45488 54.0671C6.73417 51.1936 4.62485 47.8615 3.12693 44.0708C1.65958 40.2496 0.9259 36.1226 0.9259 31.69ZM76.5289 31.69C76.5289 36.1838 77.4613 40.2343 79.3261 43.8415C81.2214 47.4488 83.8198 50.3223 87.1214 52.4622C90.4229 54.5715 94.2136 55.6262 98.4933 55.6262C102.804 55.6262 106.594 54.5715 109.865 52.4622C113.167 50.3223 115.75 47.4488 117.615 43.8415C119.48 40.2343 120.412 36.1838 120.412 31.69C120.412 27.1962 119.48 23.161 117.615 19.5844C115.75 15.9771 113.167 13.1188 109.865 11.0095C106.594 8.90019 102.804 7.84553 98.4933 7.84553C94.2136 7.84553 90.4229 8.90019 87.1214 11.0095C83.8198 13.1188 81.2214 15.9771 79.3261 19.5844C77.4613 23.161 76.5289 27.1962 76.5289 31.69ZM68.4126 31.69C68.4126 27.288 69.1616 23.1916 70.6595 19.4009C72.188 15.5797 74.3126 12.2476 77.0333 9.4046C79.754 6.5616 82.9333 4.34529 86.5711 2.75566C90.2395 1.16603 94.2136 0.371209 98.4933 0.371209C102.804 0.371209 106.778 1.16603 110.416 2.75566C114.084 4.34529 117.263 6.5616 119.953 9.4046C122.674 12.2476 124.783 15.5797 126.281 19.4009C127.779 23.1916 128.528 27.288 128.528 31.69C128.528 36.1226 127.779 40.2496 126.281 44.0708C124.814 47.8615 122.72 51.1936 119.999 54.0671C117.309 56.9101 114.145 59.1264 110.507 60.7161C106.869 62.3057 102.865 63.1005 98.4933 63.1005C94.1219 63.1005 90.0866 62.3057 86.3877 60.7161C82.7193 59.1264 79.5401 56.9101 76.8499 54.0671C74.1598 51.1936 72.081 47.8615 70.6137 44.0708C69.1463 40.2496 68.4126 36.1226 68.4126 31.69ZM155.964 1.47173H160.32L181.688 62H177.653L171.829 45.7674H144.454L138.585 62H134.504L155.964 1.47173ZM145.555 42.099H170.775L158.211 6.33233H158.073L145.555 42.099ZM196.473 32.011L222.656 62H219.079L193.217 32.7905V62H190.282V1.47173H193.217V31.69L217.658 1.47173H221.188L196.473 32.011Z" fill="white"/>
</svg>
